<?xml version="1.0" encoding="utf-8"?>
<!-- Generator: Adobe Illustrator 23.0.4, SVG Export Plug-In . SVG Version: 6.00 Build 0)  -->
<svg version="1.1" id="abc544d7-1a04-40cc-926f-7ea71d989639" 
  xmlns="http://www.w3.org/2000/svg" 
  xmlns:xlink="http://www.w3.org/1999/xlink" x="0px" y="0px" viewBox="0 0 886 654.3" style="enable-background:new 0 0 886 654.3;" xml:space="preserve">
  <style type="text/css">
	.st0{fill:#FBBEBE;}
	.st1{opacity:0.1;enable-background:new    ;}
	.st2{fill:#1F1D96;}
	.st3{fill:#3F3D56;}
	.st4{fill:none;stroke:#3F3D56;stroke-miterlimit:10;}
	.st5{fill:#57B894;}
	.st6{opacity:0.3;}
  </style>
  <title>environment1</title>
  <path class="st0" d="M538.9,533.1l-184.7,10.6c0,0-351.8-30.6-351.8-100s305.9-58.8,347.1-36.5s158.8,36.5,158.8,36.5L538.9,533.1z" />
  <path class="st1" d="M538.9,533.1l-184.7,10.6c0,0-351.8-30.6-351.8-100s305.9-58.8,347.1-36.5s158.8,36.5,158.8,36.5L538.9,533.1z" />
  <path class="st2" d="M620.1,440.2c117.7-73,265.9-38.8,265.9-38.8v105.9l-387.1-4.7l-24.7-71.8C481.2,423.7,620.1,440.2,620.1,440.2
	z"/>
  <path class="st1" d="M620.1,440c117.7-73,265.9-38.8,265.9-38.8v105.9l-387.1-4.7l-24.7-71.8C481.2,423.6,620.1,440,620.1,440z"/>
  <path class="st3" d="M35.1,388.4c0.9-3.8,5.4-6.6,7.1-10.3c1.6-3.5,1.6-8.2,3.9-11.5c2.2-3.2,2.6-8.5,5.4-11.5
	c2.7-2.8,7.8-3.6,11-6.2c3-2.5,3.8-8.6,7.2-10.9c3.2-2.2,8.9-1.2,12.4-3.1c3.4-1.9,6.6-4.8,10.3-6.5c3.5-1.6,10.6,5.1,14.4,3.7
	c3.7-1.4,6-5.9,9.9-7.1c3.7-1.2,6.1-7.6,10-8.6c3.8-1,8.8,2.8,12.7,2c3.9-0.7,6.9-6.8,10.9-7.4c3.9-0.6,8.8,7.3,12.8,6.9
	c3.9-0.4,7.5-5.5,11.5-5.7c3.9-0.2,7.9,3.7,11.9,3.7c4,0,8-2.8,11.9-2.7c4,0.2,8.4-4.7,12.3-4.3c4,0.4,6.9,9.7,10.8,10.3
	c4,0.6,9.2-6.4,13-5.7c4,0.8,8.6-0.8,12.4,0.1c3.9,1,5.7,9.9,9.4,11c3.9,1.2,6.8,4.2,10.5,5.6c3.8,1.4,9.3-1.8,12.9-0.1
	c3.7,1.7,8.5,1.4,11.9,3.3c3.6,2,8.1,3,11.3,5.1c3.4,2.3,3,9.7,6,12.2c3.1,2.6,7.9,3.4,10.5,6.2c2.8,3,8.3,4.2,10.5,7.4
	c2.3,3.3,2.1,8.8,3.8,12.3c1.7,3.7-2.8,9.2-1.9,13c0.9,3.9,6.9,6.9,6.9,10.9c0,4.1-0.5,8.2-1.4,12.2c-0.9,3.8-7.9,5.3-9.6,9
	c-1.6,3.5,2.9,10.6,0.6,13.9c-2.2,3.2-3.3,8.2-6.2,11.1c-2.7,2.8-8.5,2.9-11.7,5.6c-3,2.5-8.1,2.2-11.5,4.5c-3.2,2.2-4.9,7.1-8.4,9
	c-3.4,1.9-6.1,5.9-9.7,7.6c-3.5,1.6-8.2,1.4-11.9,2.8c-3.7,1.4-8.4-0.2-12.3,1c-3.7,1.2-6.1,8-10,8.9c-3.8,1-8.9-3.2-12.9-2.5
	c-3.9,0.7-7,6.6-11,7.2c-3.9,0.6-8.7-5.4-12.7-5c-3.9,0.4-7.6,6.1-11.6,6.3c-3.9,0.2-8.1-3.6-12.1-3.6c-4,0-7.9-1.7-11.8-1.9
	c-4-0.2-7.7-2.5-11.6-2.8c-4-0.4-8.5,4.6-12.4,4c-4-0.6-8.5,1.4-12.4,0.7c-4-0.8-6.9-6.5-10.7-7.4c-3.9-1-8.1-0.8-11.8-2
	c-3.9-1.2-8.4-0.6-12-2c-3.8-1.4-5.7-7.3-9.2-8.9c-3.7-1.7-8.9-0.2-12.3-2.1c-3.6-2-3.2-9.9-6.4-12.1c-3.4-2.3-7.4-2.8-10.4-5.3
	c-3.1-2.3-6-4.9-8.7-7.6c-2.8-3-9.6-2.5-11.9-5.7c-2.4-3.4-4.4-7-6.2-10.7c-1.7-3.7,3.7-9.5,2.8-13.3c-0.9-3.9-9.9-6.8-9.9-10.9
	C31.6,396.7,34.2,392.3,35.1,388.4z"/>
  <path class="st0" d="M465.9,589.6c0,0-144.7,37.7-314.2,28.2S2.4,443.7,16.5,428.4c14.1-15.3,134.1,29.4,220,3.5
	s218.9,42.4,218.9,42.4L465.9,589.6z"/>
  <path class="st2" d="M610.7,463.7c91.8-45.9,275.3-35,275.3-35v225.6H627.1c-45.9,0-157.7,0-171.8-3.5s-16.5-149.4-18.8-168.3
	s50.1-15.5,50.1-15.5C500.3,462.1,610.7,463.7,610.7,463.7z"/>
  <path class="st4" d="M214.4,332.7c-16.7-9-34.2-18.8-43.9-35.2c-10.4-17.6-9.4-40.5-0.6-59s24.7-32.9,42.4-43.2
	c13.1-7.7,27.6-13.6,38.9-23.9s18.8-26.8,12.9-40.9c-4.1-9.4-13.1-15.7-23.3-16.3"/>
  <path class="st4" d="M167.3,246.8c-16.7-9-34.2-18.8-43.9-35.2c-10.4-17.6-9.4-40.5-0.6-59s24.7-32.9,42.4-43.2
	c13.1-7.7,27.6-13.6,38.9-23.9s18.8-26.8,12.9-40.9c-4.1-9.4-13.1-15.7-23.3-16.3"/>
  <path class="st4" d="M151.9,237c-18.8,3.1-38.6,6.1-56.3-1c-19-7.6-32.3-26.3-36.6-46.3s-0.6-41.1,7-60.1
	c5.7-14.2,13.5-27.7,16.1-42.7s-1.6-32.7-14.8-40.3c-9-5-20-4.4-28.4,1.4"/>
  <ellipse class="st5" cx="175.3" cy="211.9" rx="28.2" ry="13.7"/>
  <ellipse class="st4" cx="178.8" cy="209.5" rx="28.2" ry="13.7"/>
  <ellipse class="st5" cx="114.1" cy="200.1" rx="28.2" ry="13.7"/>
  <ellipse class="st4" cx="117.7" cy="197.8" rx="28.2" ry="13.7"/>
  <ellipse class="st5" cx="104.7" cy="251.9" rx="28.2" ry="13.7"/>
  <ellipse class="st4" cx="108.2" cy="249.5" rx="28.2" ry="13.7"/>
  <ellipse class="st5" cx="110.6" cy="122.5" rx="28.2" ry="13.7"/>
  <ellipse class="st4" cx="114.1" cy="120.1" rx="28.2" ry="13.7"/>
  <ellipse class="st5" cx="181.2" cy="114.2" rx="28.2" ry="13.7"/>
  <ellipse class="st4" cx="184.7" cy="111.9" rx="28.2" ry="13.7"/>
  <ellipse class="st5" cx="149.4" cy="84.8" rx="28.2" ry="13.7"/>
  <ellipse class="st4" cx="153" cy="82.5" rx="28.2" ry="13.7"/>
  <ellipse class="st5" cx="80" cy="90.7" rx="28.2" ry="13.7"/>
  <ellipse class="st4" cx="83.5" cy="88.3" rx="28.2" ry="13.7"/>
  <ellipse class="st5" cx="28.2" cy="129.5" rx="28.2" ry="13.7"/>
  <ellipse class="st4" cx="31.8" cy="127.2" rx="28.2" ry="13.7"/>
  <ellipse class="st5" cx="210.6" cy="61.3" rx="28.2" ry="13.7"/>
  <ellipse class="st4" cx="214.1" cy="58.9" rx="28.2" ry="13.7"/>
  <ellipse class="st5" cx="193" cy="16.6" rx="28.2" ry="13.7"/>
  <ellipse class="st4" cx="196.5" cy="14.2" rx="28.2" ry="13.7"/>
  <ellipse class="st5" cx="29.4" cy="49.5" rx="28.2" ry="13.7"/>
  <ellipse class="st4" cx="32.9" cy="47.2" rx="28.2" ry="13.7"/>
  <ellipse class="st5" cx="289.5" cy="157.8" rx="28.2" ry="13.7"/>
  <ellipse class="st4" cx="293" cy="155.4" rx="28.2" ry="13.7"/>
  <ellipse class="st5" cx="191.8" cy="150.7" rx="28.2" ry="13.7"/>
  <ellipse class="st4" cx="195.3" cy="148.4" rx="28.2" ry="13.7"/>
  <ellipse class="st5" cx="63.5" cy="161.3" rx="28.2" ry="13.7"/>
  <ellipse class="st4" cx="67.1" cy="158.9" rx="28.2" ry="13.7"/>
  <ellipse class="st5" cx="131.8" cy="166" rx="28.2" ry="13.7"/>
  <ellipse class="st4" cx="135.3" cy="163.6" rx="28.2" ry="13.7"/>
  <ellipse class="st5" cx="127.1" cy="48.3" rx="28.2" ry="13.7"/>
  <ellipse class="st4" cx="130.6" cy="46" rx="28.2" ry="13.7"/>
  <ellipse class="st5" cx="248.3" cy="121.3" rx="28.2" ry="13.7"/>
  <ellipse class="st4" cx="251.8" cy="118.9" rx="28.2" ry="13.7"/>
  <ellipse class="st5" cx="231.8" cy="174.2" rx="28.2" ry="13.7"/>
  <ellipse class="st4" cx="235.3" cy="171.9" rx="28.2" ry="13.7"/>
  <g class="st6">

    <ellipse transform="matrix(0.8729 -0.4879 0.4879 0.8729 -99.0863 149.141)" class="st5" cx="236.7" cy="264.8" rx="6.4" ry="14.8"/>

    <ellipse transform="matrix(0.8729 -0.4879 0.4879 0.8729 -99.3756 150.1862)" class="st4" cx="238.6" cy="265.8" rx="6.4" ry="14.8"/>
  </g>
  <g class="st6">

    <ellipse transform="matrix(0.7452 -0.6669 0.6669 0.7452 -170.6752 137.8042)" class="st5" cx="95" cy="292.2" rx="14.8" ry="6.4"/>

    <ellipse transform="matrix(0.7452 -0.6669 0.6669 0.7452 -169.1422 137.7113)" class="st4" cx="95.6" cy="290.2" rx="14.8" ry="6.4"/>
  </g>
  <g class="st6">

    <ellipse transform="matrix(0.7452 -0.6669 0.6669 0.7452 -87.6556 206.7978)" class="st5" cx="226.8" cy="218.1" rx="14.8" ry="6.4"/>

    <ellipse transform="matrix(0.7452 -0.6669 0.6669 0.7452 -86.1226 206.7049)" class="st4" cx="227.4" cy="216" rx="14.8" ry="6.4"/>
  </g>
</svg>
